# xmcd
#
# Track frame offsets:
#	150
#	25315
#	42892
#	59922
#	78562
#	92720
#	114450
#	134210
#	163990
#	187622
#	207862
#	225955
#	242365
#	260200
#	276900
#	295460
#
# Disc length: 4210 seconds
#
# Revision: 5
# Processed by: cddbd v1.5.2PL0 Copyright (c) Steve Scherf et al.
# Submitted via: audiograbber 1.83.01
#
DISCID=ee107010
DTITLE=New Order - (the best of) New Order
DYEAR=1994
DGENRE=New Wave
TTITLE0=True Faith-94
TTITLE1=Bizarre Love Triangle-94
TTITLE2=1963-94
TTITLE3=Regret
TTITLE4=Fine Time
TTITLE5=The Perfect Kiss
TTITLE6=Shell Shock
TTITLE7=Thieves Like Us
TTITLE8=Vanishing Point
TTITLE9=Run 2
TTITLE10=Round and Round-94
TTITLE11=World (Price Of Love)
TTITLE12=Ruined In A Day
TTITLE13=Touched By The Hand Of God
TTITLE14=Blue Monday-88
TTITLE15=World In Motion
EXTD=
EXTT0=
EXTT1=
EXTT2=
EXTT3=
EXTT4=
EXTT5=
EXTT6=
EXTT7=
EXTT8=
EXTT9=
EXTT10=
EXTT11=
EXTT12=
EXTT13=
EXTT14=
EXTT15=
PLAYORDER=
